<mxfile host="app.diagrams.net" modified="2023-10-17T11:33:00.109Z" agent="Mozilla/5.0 (Windows NT 10.0; Win64; x64; rv:109.0) Gecko/20100101 Firefox/118.0" version="22.0.4" etag="4CanE7XRBpF7B8Y28yOX" type="github">
  <diagram name="Page-1" id="Jps5f1QxIMVDUY-n0DtK">
    <mxGraphModel>
      <root>
        <mxCell id="0" />
        <mxCell id="1" parent="0" />
      </root>
    </mxGraphModel>
  </diagram>
</mxfile>
